# xmcd
#
# Track frame offsets:
#	150
#	18427
#	35108
#	51394
#	69179
#	88620
#	111602
#	134299
#	153468
#	171245
#	189417
#	208241
#	237988
#
# Disc length: 4092 seconds
#
# Revision: 0
# Processed by: cddbd v1.4PL0 Copyright (c) Steve Scherf et al.
# Submitted via: dBpowerAMP V4.0
#
DISCID=bd0ffa0d
DTITLE=Amelia's Dream - Love Tattoo
DYEAR=1999
DGENRE=blues
TTITLE0=Footprints
TTITLE1=Garden
TTITLE2=Honey Dream
TTITLE3=Evil Ways
TTITLE4=Fire in my Heart
TTITLE5=Hey you
TTITLE6=Trust your Gut
TTITLE7=I'm Here 
TTITLE8=One in a Million
TTITLE9=The Aisle Within you
TTITLE10=Push the Button
TTITLE11=Magician
TTITLE12=DATA
EXTD=
EXTT0=
EXTT1=
EXTT2=
EXTT3=
EXTT4=
EXTT5=
EXTT6=
EXTT7=
EXTT8=
EXTT9=
EXTT10=
EXTT11=
EXTT12=
PLAYORDER=
